<svg width="176" height="30" viewBox="0 0 176 30" fill="none" xmlns="http://www.w3.org/2000/svg">
<mask id="path-1-outside-1" maskUnits="userSpaceOnUse" x="0.0879974" y="0.199997" width="176" height="30" fill="black">
<rect fill="white" x="0.0879974" y="0.199997" width="176" height="30"/>
<path d="M15.728 12.24C16.752 12.544 17.536 13.04 18.08 13.728C18.624 14.416 18.896 15.264 18.896 16.272C18.896 17.76 18.328 18.92 17.192 19.752C16.072 20.584 14.464 21 12.368 21H4.088V4.2H11.912C13.864 4.2 15.384 4.576 16.472 5.328C17.56 6.08 18.104 7.152 18.104 8.544C18.104 9.376 17.896 10.112 17.48 10.752C17.064 11.376 16.48 11.872 15.728 12.24ZM7.952 11.16H11.576C12.424 11.16 13.064 10.992 13.496 10.656C13.928 10.304 14.144 9.792 14.144 9.12C14.144 8.464 13.92 7.96 13.472 7.608C13.04 7.256 12.408 7.08 11.576 7.08H7.952V11.16ZM12.224 18.12C14.048 18.12 14.96 17.4 14.96 15.96C14.96 14.568 14.048 13.872 12.224 13.872H7.952V18.12H12.224Z"/>
<path d="M26.6988 7.896C28.6988 7.896 30.2348 8.376 31.3068 9.336C32.3788 10.28 32.9148 11.712 32.9148 13.632V21H29.4108V19.392C28.7068 20.592 27.3948 21.192 25.4748 21.192C24.4828 21.192 23.6188 21.024 22.8828 20.688C22.1628 20.352 21.6108 19.888 21.2268 19.296C20.8428 18.704 20.6508 18.032 20.6508 17.28C20.6508 16.08 21.0988 15.136 21.9948 14.448C22.9068 13.76 24.3068 13.416 26.1948 13.416H29.1708C29.1708 12.6 28.9228 11.976 28.4268 11.544C27.9308 11.096 27.1868 10.872 26.1948 10.872C25.5068 10.872 24.8268 10.984 24.1548 11.208C23.4988 11.416 22.9388 11.704 22.4748 12.072L21.1308 9.456C21.8348 8.96 22.6748 8.576 23.6508 8.304C24.6428 8.032 25.6588 7.896 26.6988 7.896ZM26.4108 18.672C27.0508 18.672 27.6188 18.528 28.1148 18.24C28.6108 17.936 28.9628 17.496 29.1708 16.92V15.6H26.6028C25.0668 15.6 24.2988 16.104 24.2988 17.112C24.2988 17.592 24.4828 17.976 24.8508 18.264C25.2348 18.536 25.7548 18.672 26.4108 18.672Z"/>
<path d="M48.7672 21V13.272L44.9032 19.752H43.3192L39.5512 13.248V21H36.1672V8.088H40.0792L44.2072 15.552L48.5992 8.088H52.1032L52.1512 21H48.7672Z"/>
<path d="M75.3744 8.088V21H71.6304V11.16H66.2544V21H62.5344V8.088H75.3744Z"/>
<path d="M85.0121 21.192C83.6521 21.192 82.4281 20.912 81.3401 20.352C80.2681 19.776 79.4281 18.984 78.8201 17.976C78.2121 16.968 77.9081 15.824 77.9081 14.544C77.9081 13.264 78.2121 12.12 78.8201 11.112C79.4281 10.104 80.2681 9.32 81.3401 8.76C82.4281 8.184 83.6521 7.896 85.0121 7.896C86.3721 7.896 87.5881 8.184 88.6601 8.76C89.7321 9.32 90.5721 10.104 91.1801 11.112C91.7881 12.12 92.0921 13.264 92.0921 14.544C92.0921 15.824 91.7881 16.968 91.1801 17.976C90.5721 18.984 89.7321 19.776 88.6601 20.352C87.5881 20.912 86.3721 21.192 85.0121 21.192ZM85.0121 18.12C85.9721 18.12 86.7561 17.8 87.3641 17.16C87.9881 16.504 88.3001 15.632 88.3001 14.544C88.3001 13.456 87.9881 12.592 87.3641 11.952C86.7561 11.296 85.9721 10.968 85.0121 10.968C84.0521 10.968 83.2601 11.296 82.6361 11.952C82.0121 12.592 81.7001 13.456 81.7001 14.544C81.7001 15.632 82.0121 16.504 82.6361 17.16C83.2601 17.8 84.0521 18.12 85.0121 18.12Z"/>
<path d="M108.952 17.928V23.784H105.472V21H96.3997V23.784H92.9197V17.928H93.4477C94.2477 17.912 94.7997 17.44 95.1037 16.512C95.4077 15.584 95.5997 14.264 95.6797 12.552L95.8477 8.088H107.104V17.928H108.952ZM99.0637 12.816C99.0157 14.128 98.9117 15.2 98.7517 16.032C98.6077 16.864 98.3277 17.496 97.9117 17.928H103.36V11.16H99.1357L99.0637 12.816Z"/>
<path d="M116.324 7.896C118.324 7.896 119.86 8.376 120.932 9.336C122.004 10.28 122.54 11.712 122.54 13.632V21H119.036V19.392C118.332 20.592 117.02 21.192 115.1 21.192C114.108 21.192 113.244 21.024 112.508 20.688C111.788 20.352 111.236 19.888 110.852 19.296C110.468 18.704 110.276 18.032 110.276 17.28C110.276 16.08 110.724 15.136 111.62 14.448C112.532 13.76 113.932 13.416 115.82 13.416H118.796C118.796 12.6 118.548 11.976 118.052 11.544C117.556 11.096 116.812 10.872 115.82 10.872C115.132 10.872 114.452 10.984 113.78 11.208C113.124 11.416 112.564 11.704 112.1 12.072L110.756 9.456C111.46 8.96 112.3 8.576 113.276 8.304C114.268 8.032 115.284 7.896 116.324 7.896ZM116.036 18.672C116.676 18.672 117.244 18.528 117.74 18.24C118.236 17.936 118.588 17.496 118.796 16.92V15.6H116.228C114.692 15.6 113.924 16.104 113.924 17.112C113.924 17.592 114.108 17.976 114.476 18.264C114.86 18.536 115.38 18.672 116.036 18.672Z"/>
<path d="M133.4 7.896C134.6 7.896 135.688 8.176 136.664 8.736C137.656 9.28 138.432 10.056 138.992 11.064C139.552 12.056 139.832 13.216 139.832 14.544C139.832 15.872 139.552 17.04 138.992 18.048C138.432 19.04 137.656 19.816 136.664 20.376C135.688 20.92 134.6 21.192 133.4 21.192C131.752 21.192 130.456 20.672 129.512 19.632V25.656H125.768V8.088H129.344V9.576C130.272 8.456 131.624 7.896 133.4 7.896ZM132.752 18.12C133.712 18.12 134.496 17.8 135.104 17.16C135.728 16.504 136.04 15.632 136.04 14.544C136.04 13.456 135.728 12.592 135.104 11.952C134.496 11.296 133.712 10.968 132.752 10.968C131.792 10.968 131 11.296 130.376 11.952C129.768 12.592 129.464 13.456 129.464 14.544C129.464 15.632 129.768 16.504 130.376 17.16C131 17.8 131.792 18.12 132.752 18.12Z"/>
<path d="M148.504 21.192C147.144 21.192 145.92 20.912 144.832 20.352C143.76 19.776 142.92 18.984 142.312 17.976C141.704 16.968 141.4 15.824 141.4 14.544C141.4 13.264 141.704 12.12 142.312 11.112C142.92 10.104 143.76 9.32 144.832 8.76C145.92 8.184 147.144 7.896 148.504 7.896C149.864 7.896 151.08 8.184 152.152 8.76C153.224 9.32 154.064 10.104 154.672 11.112C155.28 12.12 155.584 13.264 155.584 14.544C155.584 15.824 155.28 16.968 154.672 17.976C154.064 18.984 153.224 19.776 152.152 20.352C151.08 20.912 149.864 21.192 148.504 21.192ZM148.504 18.12C149.464 18.12 150.248 17.8 150.856 17.16C151.48 16.504 151.792 15.632 151.792 14.544C151.792 13.456 151.48 12.592 150.856 11.952C150.248 11.296 149.464 10.968 148.504 10.968C147.544 10.968 146.752 11.296 146.128 11.952C145.504 12.592 145.192 13.456 145.192 14.544C145.192 15.632 145.504 16.504 146.128 17.16C146.752 17.8 147.544 18.12 148.504 18.12Z"/>
<path d="M163.847 16.104H161.903V21H158.159V8.088H161.903V13.104H163.919L167.423 8.088H171.407L166.895 14.28L171.719 21H167.303L163.847 16.104Z"/>
</mask>
<path d="M15.728 12.24C16.752 12.544 17.536 13.04 18.08 13.728C18.624 14.416 18.896 15.264 18.896 16.272C18.896 17.76 18.328 18.92 17.192 19.752C16.072 20.584 14.464 21 12.368 21H4.088V4.2H11.912C13.864 4.2 15.384 4.576 16.472 5.328C17.56 6.08 18.104 7.152 18.104 8.544C18.104 9.376 17.896 10.112 17.48 10.752C17.064 11.376 16.48 11.872 15.728 12.24ZM7.952 11.16H11.576C12.424 11.16 13.064 10.992 13.496 10.656C13.928 10.304 14.144 9.792 14.144 9.12C14.144 8.464 13.92 7.96 13.472 7.608C13.04 7.256 12.408 7.08 11.576 7.08H7.952V11.16ZM12.224 18.12C14.048 18.12 14.96 17.4 14.96 15.96C14.96 14.568 14.048 13.872 12.224 13.872H7.952V18.12H12.224Z" fill="#FDFF86"/>
<path d="M26.6988 7.896C28.6988 7.896 30.2348 8.376 31.3068 9.336C32.3788 10.28 32.9148 11.712 32.9148 13.632V21H29.4108V19.392C28.7068 20.592 27.3948 21.192 25.4748 21.192C24.4828 21.192 23.6188 21.024 22.8828 20.688C22.1628 20.352 21.6108 19.888 21.2268 19.296C20.8428 18.704 20.6508 18.032 20.6508 17.28C20.6508 16.08 21.0988 15.136 21.9948 14.448C22.9068 13.76 24.3068 13.416 26.1948 13.416H29.1708C29.1708 12.6 28.9228 11.976 28.4268 11.544C27.9308 11.096 27.1868 10.872 26.1948 10.872C25.5068 10.872 24.8268 10.984 24.1548 11.208C23.4988 11.416 22.9388 11.704 22.4748 12.072L21.1308 9.456C21.8348 8.96 22.6748 8.576 23.6508 8.304C24.6428 8.032 25.6588 7.896 26.6988 7.896ZM26.4108 18.672C27.0508 18.672 27.6188 18.528 28.1148 18.24C28.6108 17.936 28.9628 17.496 29.1708 16.92V15.6H26.6028C25.0668 15.6 24.2988 16.104 24.2988 17.112C24.2988 17.592 24.4828 17.976 24.8508 18.264C25.2348 18.536 25.7548 18.672 26.4108 18.672Z" fill="#FDFF86"/>
<path d="M48.7672 21V13.272L44.9032 19.752H43.3192L39.5512 13.248V21H36.1672V8.088H40.0792L44.2072 15.552L48.5992 8.088H52.1032L52.1512 21H48.7672Z" fill="#FDFF86"/>
<path d="M75.3744 8.088V21H71.6304V11.16H66.2544V21H62.5344V8.088H75.3744Z" fill="#FDFF86"/>
<path d="M85.0121 21.192C83.6521 21.192 82.4281 20.912 81.3401 20.352C80.2681 19.776 79.4281 18.984 78.8201 17.976C78.2121 16.968 77.9081 15.824 77.9081 14.544C77.9081 13.264 78.2121 12.12 78.8201 11.112C79.4281 10.104 80.2681 9.32 81.3401 8.76C82.4281 8.184 83.6521 7.896 85.0121 7.896C86.3721 7.896 87.5881 8.184 88.6601 8.76C89.7321 9.32 90.5721 10.104 91.1801 11.112C91.7881 12.12 92.0921 13.264 92.0921 14.544C92.0921 15.824 91.7881 16.968 91.1801 17.976C90.5721 18.984 89.7321 19.776 88.6601 20.352C87.5881 20.912 86.3721 21.192 85.0121 21.192ZM85.0121 18.12C85.9721 18.12 86.7561 17.8 87.3641 17.16C87.9881 16.504 88.3001 15.632 88.3001 14.544C88.3001 13.456 87.9881 12.592 87.3641 11.952C86.7561 11.296 85.9721 10.968 85.0121 10.968C84.0521 10.968 83.2601 11.296 82.6361 11.952C82.0121 12.592 81.7001 13.456 81.7001 14.544C81.7001 15.632 82.0121 16.504 82.6361 17.16C83.2601 17.8 84.0521 18.12 85.0121 18.12Z" fill="#FDFF86"/>
<path d="M108.952 17.928V23.784H105.472V21H96.3997V23.784H92.9197V17.928H93.4477C94.2477 17.912 94.7997 17.44 95.1037 16.512C95.4077 15.584 95.5997 14.264 95.6797 12.552L95.8477 8.088H107.104V17.928H108.952ZM99.0637 12.816C99.0157 14.128 98.9117 15.2 98.7517 16.032C98.6077 16.864 98.3277 17.496 97.9117 17.928H103.36V11.16H99.1357L99.0637 12.816Z" fill="#FDFF86"/>
<path d="M116.324 7.896C118.324 7.896 119.86 8.376 120.932 9.336C122.004 10.28 122.54 11.712 122.54 13.632V21H119.036V19.392C118.332 20.592 117.02 21.192 115.1 21.192C114.108 21.192 113.244 21.024 112.508 20.688C111.788 20.352 111.236 19.888 110.852 19.296C110.468 18.704 110.276 18.032 110.276 17.28C110.276 16.08 110.724 15.136 111.62 14.448C112.532 13.76 113.932 13.416 115.82 13.416H118.796C118.796 12.6 118.548 11.976 118.052 11.544C117.556 11.096 116.812 10.872 115.82 10.872C115.132 10.872 114.452 10.984 113.78 11.208C113.124 11.416 112.564 11.704 112.1 12.072L110.756 9.456C111.46 8.96 112.3 8.576 113.276 8.304C114.268 8.032 115.284 7.896 116.324 7.896ZM116.036 18.672C116.676 18.672 117.244 18.528 117.74 18.24C118.236 17.936 118.588 17.496 118.796 16.92V15.6H116.228C114.692 15.6 113.924 16.104 113.924 17.112C113.924 17.592 114.108 17.976 114.476 18.264C114.86 18.536 115.38 18.672 116.036 18.672Z" fill="#FDFF86"/>
<path d="M133.4 7.896C134.6 7.896 135.688 8.176 136.664 8.736C137.656 9.28 138.432 10.056 138.992 11.064C139.552 12.056 139.832 13.216 139.832 14.544C139.832 15.872 139.552 17.04 138.992 18.048C138.432 19.04 137.656 19.816 136.664 20.376C135.688 20.92 134.6 21.192 133.4 21.192C131.752 21.192 130.456 20.672 129.512 19.632V25.656H125.768V8.088H129.344V9.576C130.272 8.456 131.624 7.896 133.4 7.896ZM132.752 18.12C133.712 18.12 134.496 17.8 135.104 17.16C135.728 16.504 136.04 15.632 136.04 14.544C136.04 13.456 135.728 12.592 135.104 11.952C134.496 11.296 133.712 10.968 132.752 10.968C131.792 10.968 131 11.296 130.376 11.952C129.768 12.592 129.464 13.456 129.464 14.544C129.464 15.632 129.768 16.504 130.376 17.16C131 17.8 131.792 18.12 132.752 18.12Z" fill="#FDFF86"/>
<path d="M148.504 21.192C147.144 21.192 145.92 20.912 144.832 20.352C143.76 19.776 142.92 18.984 142.312 17.976C141.704 16.968 141.4 15.824 141.4 14.544C141.4 13.264 141.704 12.12 142.312 11.112C142.92 10.104 143.76 9.32 144.832 8.76C145.92 8.184 147.144 7.896 148.504 7.896C149.864 7.896 151.08 8.184 152.152 8.76C153.224 9.32 154.064 10.104 154.672 11.112C155.28 12.12 155.584 13.264 155.584 14.544C155.584 15.824 155.28 16.968 154.672 17.976C154.064 18.984 153.224 19.776 152.152 20.352C151.08 20.912 149.864 21.192 148.504 21.192ZM148.504 18.12C149.464 18.12 150.248 17.8 150.856 17.16C151.48 16.504 151.792 15.632 151.792 14.544C151.792 13.456 151.48 12.592 150.856 11.952C150.248 11.296 149.464 10.968 148.504 10.968C147.544 10.968 146.752 11.296 146.128 11.952C145.504 12.592 145.192 13.456 145.192 14.544C145.192 15.632 145.504 16.504 146.128 17.16C146.752 17.8 147.544 18.12 148.504 18.12Z" fill="#FDFF86"/>
<path d="M163.847 16.104H161.903V21H158.159V8.088H161.903V13.104H163.919L167.423 8.088H171.407L166.895 14.28L171.719 21H167.303L163.847 16.104Z" fill="#FDFF86"/>
<path d="M15.728 12.24C16.752 12.544 17.536 13.04 18.08 13.728C18.624 14.416 18.896 15.264 18.896 16.272C18.896 17.76 18.328 18.92 17.192 19.752C16.072 20.584 14.464 21 12.368 21H4.088V4.2H11.912C13.864 4.2 15.384 4.576 16.472 5.328C17.56 6.08 18.104 7.152 18.104 8.544C18.104 9.376 17.896 10.112 17.48 10.752C17.064 11.376 16.48 11.872 15.728 12.24ZM7.952 11.16H11.576C12.424 11.16 13.064 10.992 13.496 10.656C13.928 10.304 14.144 9.792 14.144 9.12C14.144 8.464 13.92 7.96 13.472 7.608C13.04 7.256 12.408 7.08 11.576 7.08H7.952V11.16ZM12.224 18.12C14.048 18.12 14.96 17.4 14.96 15.96C14.96 14.568 14.048 13.872 12.224 13.872H7.952V18.12H12.224Z" stroke="#EE6400" stroke-width="8" stroke-linejoin="round" mask="url(#path-1-outside-1)"/>
<path d="M26.6988 7.896C28.6988 7.896 30.2348 8.376 31.3068 9.336C32.3788 10.28 32.9148 11.712 32.9148 13.632V21H29.4108V19.392C28.7068 20.592 27.3948 21.192 25.4748 21.192C24.4828 21.192 23.6188 21.024 22.8828 20.688C22.1628 20.352 21.6108 19.888 21.2268 19.296C20.8428 18.704 20.6508 18.032 20.6508 17.28C20.6508 16.08 21.0988 15.136 21.9948 14.448C22.9068 13.76 24.3068 13.416 26.1948 13.416H29.1708C29.1708 12.6 28.9228 11.976 28.4268 11.544C27.9308 11.096 27.1868 10.872 26.1948 10.872C25.5068 10.872 24.8268 10.984 24.1548 11.208C23.4988 11.416 22.9388 11.704 22.4748 12.072L21.1308 9.456C21.8348 8.96 22.6748 8.576 23.6508 8.304C24.6428 8.032 25.6588 7.896 26.6988 7.896ZM26.4108 18.672C27.0508 18.672 27.6188 18.528 28.1148 18.24C28.6108 17.936 28.9628 17.496 29.1708 16.92V15.6H26.6028C25.0668 15.6 24.2988 16.104 24.2988 17.112C24.2988 17.592 24.4828 17.976 24.8508 18.264C25.2348 18.536 25.7548 18.672 26.4108 18.672Z" stroke="#EE6400" stroke-width="8" stroke-linejoin="round" mask="url(#path-1-outside-1)"/>
<path d="M48.7672 21V13.272L44.9032 19.752H43.3192L39.5512 13.248V21H36.1672V8.088H40.0792L44.2072 15.552L48.5992 8.088H52.1032L52.1512 21H48.7672Z" stroke="#EE6400" stroke-width="8" stroke-linejoin="round" mask="url(#path-1-outside-1)"/>
<path d="M75.3744 8.088V21H71.6304V11.16H66.2544V21H62.5344V8.088H75.3744Z" stroke="#EE6400" stroke-width="8" stroke-linejoin="round" mask="url(#path-1-outside-1)"/>
<path d="M85.0121 21.192C83.6521 21.192 82.4281 20.912 81.3401 20.352C80.2681 19.776 79.4281 18.984 78.8201 17.976C78.2121 16.968 77.9081 15.824 77.9081 14.544C77.9081 13.264 78.2121 12.12 78.8201 11.112C79.4281 10.104 80.2681 9.32 81.3401 8.76C82.4281 8.184 83.6521 7.896 85.0121 7.896C86.3721 7.896 87.5881 8.184 88.6601 8.76C89.7321 9.32 90.5721 10.104 91.1801 11.112C91.7881 12.12 92.0921 13.264 92.0921 14.544C92.0921 15.824 91.7881 16.968 91.1801 17.976C90.5721 18.984 89.7321 19.776 88.6601 20.352C87.5881 20.912 86.3721 21.192 85.0121 21.192ZM85.0121 18.12C85.9721 18.12 86.7561 17.8 87.3641 17.16C87.9881 16.504 88.3001 15.632 88.3001 14.544C88.3001 13.456 87.9881 12.592 87.3641 11.952C86.7561 11.296 85.9721 10.968 85.0121 10.968C84.0521 10.968 83.2601 11.296 82.6361 11.952C82.0121 12.592 81.7001 13.456 81.7001 14.544C81.7001 15.632 82.0121 16.504 82.6361 17.16C83.2601 17.8 84.0521 18.12 85.0121 18.12Z" stroke="#EE6400" stroke-width="8" stroke-linejoin="round" mask="url(#path-1-outside-1)"/>
<path d="M108.952 17.928V23.784H105.472V21H96.3997V23.784H92.9197V17.928H93.4477C94.2477 17.912 94.7997 17.44 95.1037 16.512C95.4077 15.584 95.5997 14.264 95.6797 12.552L95.8477 8.088H107.104V17.928H108.952ZM99.0637 12.816C99.0157 14.128 98.9117 15.2 98.7517 16.032C98.6077 16.864 98.3277 17.496 97.9117 17.928H103.36V11.16H99.1357L99.0637 12.816Z" stroke="#EE6400" stroke-width="8" stroke-linejoin="round" mask="url(#path-1-outside-1)"/>
<path d="M116.324 7.896C118.324 7.896 119.86 8.376 120.932 9.336C122.004 10.28 122.54 11.712 122.54 13.632V21H119.036V19.392C118.332 20.592 117.02 21.192 115.1 21.192C114.108 21.192 113.244 21.024 112.508 20.688C111.788 20.352 111.236 19.888 110.852 19.296C110.468 18.704 110.276 18.032 110.276 17.28C110.276 16.08 110.724 15.136 111.62 14.448C112.532 13.76 113.932 13.416 115.82 13.416H118.796C118.796 12.6 118.548 11.976 118.052 11.544C117.556 11.096 116.812 10.872 115.82 10.872C115.132 10.872 114.452 10.984 113.78 11.208C113.124 11.416 112.564 11.704 112.1 12.072L110.756 9.456C111.46 8.96 112.3 8.576 113.276 8.304C114.268 8.032 115.284 7.896 116.324 7.896ZM116.036 18.672C116.676 18.672 117.244 18.528 117.74 18.24C118.236 17.936 118.588 17.496 118.796 16.92V15.6H116.228C114.692 15.6 113.924 16.104 113.924 17.112C113.924 17.592 114.108 17.976 114.476 18.264C114.86 18.536 115.38 18.672 116.036 18.672Z" stroke="#EE6400" stroke-width="8" stroke-linejoin="round" mask="url(#path-1-outside-1)"/>
<path d="M133.4 7.896C134.6 7.896 135.688 8.176 136.664 8.736C137.656 9.28 138.432 10.056 138.992 11.064C139.552 12.056 139.832 13.216 139.832 14.544C139.832 15.872 139.552 17.04 138.992 18.048C138.432 19.04 137.656 19.816 136.664 20.376C135.688 20.92 134.6 21.192 133.4 21.192C131.752 21.192 130.456 20.672 129.512 19.632V25.656H125.768V8.088H129.344V9.576C130.272 8.456 131.624 7.896 133.4 7.896ZM132.752 18.12C133.712 18.12 134.496 17.8 135.104 17.16C135.728 16.504 136.04 15.632 136.04 14.544C136.04 13.456 135.728 12.592 135.104 11.952C134.496 11.296 133.712 10.968 132.752 10.968C131.792 10.968 131 11.296 130.376 11.952C129.768 12.592 129.464 13.456 129.464 14.544C129.464 15.632 129.768 16.504 130.376 17.16C131 17.8 131.792 18.12 132.752 18.12Z" stroke="#EE6400" stroke-width="8" stroke-linejoin="round" mask="url(#path-1-outside-1)"/>
<path d="M148.504 21.192C147.144 21.192 145.92 20.912 144.832 20.352C143.76 19.776 142.92 18.984 142.312 17.976C141.704 16.968 141.4 15.824 141.4 14.544C141.4 13.264 141.704 12.12 142.312 11.112C142.92 10.104 143.76 9.32 144.832 8.76C145.92 8.184 147.144 7.896 148.504 7.896C149.864 7.896 151.08 8.184 152.152 8.76C153.224 9.32 154.064 10.104 154.672 11.112C155.28 12.12 155.584 13.264 155.584 14.544C155.584 15.824 155.28 16.968 154.672 17.976C154.064 18.984 153.224 19.776 152.152 20.352C151.08 20.912 149.864 21.192 148.504 21.192ZM148.504 18.12C149.464 18.12 150.248 17.8 150.856 17.16C151.48 16.504 151.792 15.632 151.792 14.544C151.792 13.456 151.48 12.592 150.856 11.952C150.248 11.296 149.464 10.968 148.504 10.968C147.544 10.968 146.752 11.296 146.128 11.952C145.504 12.592 145.192 13.456 145.192 14.544C145.192 15.632 145.504 16.504 146.128 17.16C146.752 17.8 147.544 18.12 148.504 18.12Z" stroke="#EE6400" stroke-width="8" stroke-linejoin="round" mask="url(#path-1-outside-1)"/>
<path d="M163.847 16.104H161.903V21H158.159V8.088H161.903V13.104H163.919L167.423 8.088H171.407L166.895 14.28L171.719 21H167.303L163.847 16.104Z" stroke="#EE6400" stroke-width="8" stroke-linejoin="round" mask="url(#path-1-outside-1)"/>
</svg>
